Coordinates
version=1
nRows=20
nColumns=23
inDegrees=yes

Units are S.I. units (second, meters, Newtons, ...)
If the header above contains a line with 'inDegrees', this indicates whether rotational values are in degrees (yes) or radians (no).

endheader
time	pelvis_tilt	pelvis_list	pelvis_rotation	pelvis_tx	pelvis_ty	pelvis_tz	hip_flexion_r	hip_adduction_r	hip_rotation_r	knee_angle_r	knee_angle_r_beta	ankle_angle_r	subtalar_angle_r	mtp_angle_r	hip_flexion_l	hip_adduction_l	hip_rotation_l	knee_angle_l	knee_angle_l_beta	ankle_angle_l	subtalar_angle_l	mtp_angle_l
     15.00000000	     -3.99078988	     -3.79947556	     -6.05099790	      2.25920699	      0.90195403	      1.00931791	     23.67491824	      8.78881800	      3.00328571	     48.24194248	      0.84198073	     25.10347211	     -7.24941778	      0.00000000	     16.35695187	     -5.99668732	     -2.99598080	    104.44760938	      1.82295468	    -11.14590616	     -7.12753435	      0.00000000
     15.00666667	     -3.89609086	     -3.46557763	     -6.06041284	      2.25794284	      0.90196845	      1.00959609	     21.73655528	      8.43421506	      3.57067607	     47.84980236	      0.83513660	     26.21707181	     -7.12239677	      0.00000000	     18.49497191	     -5.84610537	     -2.62021530	    105.51583083	      1.84159866	    -10.50701088	     -6.88241503	      0.00000000
     15.01333333	     -4.02602367	     -3.28210304	     -5.75954859	      2.25700190	      0.90204120	      1.00954836	     19.91450813	      7.98328074	      3.46419113	     47.21520373	      0.82406076	     27.28465058	     -6.59716689	      0.00000000	     20.93676069	     -5.87211230	     -1.99446140	    106.43115951	      1.85757416	     -9.19017660	     -5.50353802	      0.00000000
     15.02000000	     -4.04945959	     -2.90420353	     -5.59756026	      2.25638289	      0.90301036	      1.00974577	     17.79838904	      7.41589022	      3.66700480	     46.22359339	      0.80675390	     27.93122394	     -6.15953764	      0.00000000	     23.11058910	     -5.70914524	     -1.66865313	    106.84648362	      1.86482293	     -8.26500306	     -4.78438560	      0.00000000
     15.02666667	     -3.92326236	     -2.57121333	     -5.40327471	      2.25626543	      0.90482164	      1.00996770	     15.32588319	      6.81749018	      3.72412056	     44.85132779	      0.78280334	     28.26732276	     -5.57026789	      0.00000000	     24.97976444	     -5.62476172	     -1.44326296	    106.87085516	      1.86524830	     -7.39979397	     -4.01947601	      0.00000000
     15.03333333	     -3.90848783	     -1.98197477	     -5.24102916	      2.25631595	      0.90703652	      1.01023762	     12.93018557	      6.01833330	      3.97661998	     43.33465219	      0.75633236	     28.36430883	     -5.10492076	      0.00000000	     26.87095680	     -5.23279017	     -1.40660806	    106.51680856	      1.85906902	     -6.55676628	     -3.49587579	      0.00000000
     15.04000000	     -3.86818427	     -1.29890877	     -5.10580555	      2.25677032	      0.90978195	      1.01050493	     10.43421457	      5.06696408	      4.12528239	     41.62854365	      0.72655515	     28.25967082	     -4.44760409	      0.00000000	     28.57270547	     -4.77460968	     -1.56456442	    105.80553911	      1.84665502	     -5.74061543	     -3.07068485	      0.00000000
     15.04666667	     -3.74282667	     -0.56171030	     -4.95807665	      2.25769274	      0.91315786	      1.01076497	      7.77267227	      3.98256866	      4.06218358	     39.72014209	      0.69324726	     27.88957949	     -3.51242342	      0.00000000	     30.00109095	     -4.26673117	     -1.86148137	    104.71901809	      1.82769166	     -5.02746027	     -2.81642090	      0.00000000
     15.05333333	     -3.74209529	      0.34500123	     -4.83789452	      2.25886294	      0.91677746	      1.01099613	      5.28174024	      2.70717172	      3.89480852	     37.76860025	      0.65918643	     27.04481396	     -2.67121756	      0.00000000	     31.41746758	     -3.59468998	     -2.34643137	    103.31584588	      1.80320168	     -4.29010278	     -2.65477877	      0.00000000
     15.06000000	     -3.72549849	      1.27453269	     -4.70312016	      2.26034071	      0.92080428	      1.01117285	      2.74778114	      1.39163365	      3.56014934	     35.67089933	      0.62257464	     25.65023080	     -1.81024403	      0.00000000	     32.65502297	     -2.88333746	     -2.90407426	    101.61856508	      1.77357854	     -3.59816211	     -2.62347924	      0.00000000
     15.06666667	     -3.65487287	      2.18579874	     -4.54636235	      2.26216268	      0.92524498	      1.01127194	      0.14069985	      0.08767029	      3.03170101	     33.43602308	      0.58356869	     23.59888198	     -1.01729860	      0.00000000	     33.65533248	     -2.15961065	     -3.49692845	     99.62011461	      1.73869900	     -2.90892912	     -2.69600017	      0.00000000
     15.07333333	     -3.63164161	      3.08198937	     -4.40213005	      2.26416655	      0.92985933	      1.01137727	     -2.36959725	     -1.17782694	      2.36035208	     31.16969186	      0.54401375	     20.90218894	     -0.36653353	      0.00000000	     34.55613689	     -1.46715946	     -4.15180525	     97.38503396	      1.69968948	     -2.21345107	     -2.82543426	      0.00000000
     15.08000000	     -3.63788180	      3.95253309	     -4.23785367	      2.26628357	      0.93458774	      1.01144443	     -4.77912847	     -2.38036358	      1.53161756	     28.92016101	      0.50475203	     17.69986160	      0.12792426	      0.00000000	     35.35520154	     -0.75041946	     -4.77312756	     94.92133860	      1.65668989	     -1.53318958	     -3.03823712	      0.00000000
     15.08666667	     -3.84277665	      4.80837043	     -4.05856871	      2.26853181	      0.93909357	      1.01133171	     -6.82959095	     -3.54098920	      0.53712130	     26.84208956	      0.46848284	     14.03607048	      0.55711711	      0.00000000	     36.24038310	     -0.04226899	     -5.42889911	     92.27484190	      1.61049981	     -0.88078732	     -3.21815139	      0.00000000
     15.09333333	     -4.06604736	      5.52470162	     -3.89803251	      2.27075770	      0.94362726	      1.01127259	     -8.73370255	     -4.51148727	     -0.53927823	     24.89235322	      0.43445352	     10.02795880	      0.93718734	      0.00000000	     37.01476401	      0.52911223	     -6.02295642	     89.44045868	      1.56103049	     -0.26498212	     -3.48727870	      0.00000000
     15.10000000	     -4.96451587	      6.03304619	     -4.07783877	      2.27254734	      0.94723525	      1.01165205	     -9.42472361	     -5.28651883	     -1.34775714	     23.64391370	      0.41266414	      6.07154529	      1.68839020	      0.00000000	     38.44102738	      0.56283831	     -6.83927190	     86.55271765	      1.51062990	      0.41189381	     -3.58035578	      0.00000000
     15.10666667	     -4.64609288	      6.48646876	     -3.53990530	      2.27515983	      0.95230577	      1.01103121	    -11.91158496	     -5.85825011	     -2.88703072	     21.61315023	      0.37722063	      1.36154862	      1.43684118	      0.00000000	     38.35145372	      1.30201283	     -6.92243136	     83.29897210	      1.45384133	      0.81574158	     -4.14476882	      0.00000000
     15.11333333	     -5.03913781	      6.73653102	     -3.35613075	      2.27716415	      0.95634075	      1.01089170	    -13.07644634	     -6.24630470	     -4.02493646	     20.42206910	      0.35643235	     -3.11088796	      1.39617085	      0.00000000	     38.96629918	      1.49525401	     -7.23612592	     79.99990254	      1.39626170	      1.25970238	     -4.37682170	      0.00000000
     15.12000000	     -5.50036781	      6.83874122	     -3.13834173	      2.27904628	      0.96009055	      1.01067118	    -13.93177114	     -6.48653592	     -5.22968875	     19.62665918	      0.34254982	     -7.37525558	      1.40393627	      0.00000000	     39.54539410	      1.60039239	     -7.43181003	     76.54659604	      1.33599013	      1.65110969	     -4.54202164	      0.00000000
     15.12666667	     -5.88220251	      6.75408781	     -2.94793902	      2.28079686	      0.96370236	      1.01050191	    -14.69175290	     -6.51955907	     -6.26295347	     19.09079491	      0.33319723	    -11.46125417	      1.27846137	      0.00000000	     39.90935047	      1.53894545	     -7.53740151	     72.93627005	      1.27297806	      1.96922956	     -4.72324455	      0.00000000
